<?xml version="1.0" encoding="utf-8"?>
<!-- Generator: Adobe Illustrator 25.4.1, SVG Export Plug-In . SVG Version: 6.00 Build 0)  -->
<svg version="1.1" id="Capa_1" xmlns="http://www.w3.org/2000/svg" xmlns:xlink="http://www.w3.org/1999/xlink" x="0px" y="0px"
	 viewBox="0 0 298.1 135.5" style="enable-background:new 0 0 298.1 135.5;" xml:space="preserve">
<style type="text/css">
	.st0{fill:#D81664;}
	.st1{fill:#FFFFFF;}
</style>
<polygon class="st0" points="294,130.7 298.1,8.8 0,-0.2 4.4,135.2 "/>
<path class="st1" d="M268.9,103.6l2-54.2h-34.6l1,54.2L268.9,103.6z M257.9,62.6l-1,28.3l-6.4,1.1l-1-29.3L257.9,62.6z"/>
<polygon class="st1" points="207.8,80.3 212.6,80.3 216.8,103.6 233.4,103.6 229.8,71.9 213.5,70.1 232.6,45 215.9,45 208.7,70.1 
	207.8,70.1 207.8,29.1 191.6,29.1 189.6,103.7 207.8,103.7 "/>
<path class="st1" d="M182.8,52.4l-34-3l-0.5,11.1l20.8-0.8l1.8,10.7l-13.5-0.3l-10.7,7.1l0.3,26.4h39L182.8,52.4z M163.8,94.2
	l-0.4-13.9l9.4-0.2l1.6,14.6L163.8,94.2z"/>
<polygon class="st1" points="92.2,103.7 91.8,66.3 96.3,66.3 101.8,103.7 118,104.2 117.8,67.2 123,67.2 126.4,103.6 143.2,103.7 
	137.1,54.5 110.7,54.5 111.9,68.3 106.2,68.3 102.8,49.5 76.4,48.9 76.7,103.7 "/>
<path class="st1" d="M72.9,31.4L28,34.8l-0.4,69h44.2L72.9,31.4z M54,92h-6.6l-1.9-44.5l10.9-0.6L54,92z"/>
</svg>
