<svg id="Capa_1" data-name="Capa 1" xmlns="http://www.w3.org/2000/svg" viewBox="0 0 80 80"><defs><style>.cls-1{fill:#d81664;}.cls-2{fill:#fff;}</style></defs><rect class="cls-1" width="80" height="80" rx="15"/><path class="cls-2" d="M7.35,40.36l8-14.17,24.61-8.44,17.91,4.76L74,38.24l-9.1,13.63L51.58,61.05,31,62.9,14.15,53.44,5.89,42.5l4.31.17,5.57,9L30.61,57.9l20.08.76,12.66-8.31,5-11.66L57.48,25.78,38.25,22l-19,7.79L9.37,40.89Z"/><path class="cls-2" d="M55.24,46.9c-.47.48-10.91,8.71-10.91,8.71l-14.9-5.43L24.11,36.79l10.32-8.91L48,28.67l6.87,7.49L55,46,51.57,44.8l.61-7.43-5-4.63L35.45,31l-5.52,7.46L32.52,48l12,2.53,8.76-4Z"/></svg>